<svg xmlns="http://www.w3.org/2000/svg" xmlns:xlink="http://www.w3.org/1999/xlink" width="1587" zoomAndPan="magnify" viewBox="0 0 1190.25 1683.749945" height="2245" preserveAspectRatio="xMidYMid meet" version="1.0"><defs><clipPath id="a45d7d21d6"><path d="M 0 0.40625 L 1189.5 0.40625 L 1189.5 1683.09375 L 0 1683.09375 Z M 0 0.40625 " clip-rule="nonzero"/></clipPath><clipPath id="7bf17ab8d5"><path d="M 118.980469 119.386719 L 1070.820312 119.386719 L 1070.820312 1565 L 118.980469 1565 Z M 118.980469 119.386719 " clip-rule="nonzero"/></clipPath><clipPath id="129183dd61"><path d="M 188.6875 119.386719 L 1001.113281 119.386719 C 1039.613281 119.386719 1070.820312 150.59375 1070.820312 189.089844 L 1070.820312 1494.4375 C 1070.820312 1532.9375 1039.613281 1564.144531 1001.113281 1564.144531 L 188.6875 1564.144531 C 150.1875 1564.144531 118.980469 1532.9375 118.980469 1494.4375 L 118.980469 189.089844 C 118.980469 150.59375 150.1875 119.386719 188.6875 119.386719 Z M 188.6875 119.386719 " clip-rule="nonzero"/></clipPath><clipPath id="d9601d3866"><path d="M 118.980469 119.390625 L 1070.878906 119.390625 L 1070.878906 1564.476562 L 118.980469 1564.476562 Z M 118.980469 119.390625 " clip-rule="nonzero"/></clipPath><clipPath id="2751368d54"><path d="M 188.683594 119.390625 L 1001.105469 119.390625 C 1039.601562 119.390625 1070.808594 150.597656 1070.808594 189.09375 L 1070.808594 1494.425781 C 1070.808594 1532.921875 1039.601562 1564.132812 1001.105469 1564.132812 L 188.683594 1564.132812 C 150.1875 1564.132812 118.980469 1532.921875 118.980469 1494.425781 L 118.980469 189.09375 C 118.980469 150.597656 150.1875 119.390625 188.683594 119.390625 Z M 188.683594 119.390625 " clip-rule="nonzero"/></clipPath></defs><g clip-path="url(#a45d7d21d6)"><path fill="#ffffff" d="M 0 0.40625 L 1189.5 0.40625 L 1189.5 1683.09375 L 0 1683.09375 Z M 0 0.40625 " fill-opacity="1" fill-rule="nonzero"/><path fill="#ffffff" d="M 0 0.40625 L 1189.5 0.40625 L 1189.5 1683.09375 L 0 1683.09375 Z M 0 0.40625 " fill-opacity="1" fill-rule="nonzero"/></g><g clip-path="url(#7bf17ab8d5)"><g clip-path="url(#129183dd61)"><path fill="#d3d3d3" d="M 118.980469 119.386719 L 1070.820312 119.386719 L 1070.820312 1565.738281 L 118.980469 1565.738281 Z M 118.980469 119.386719 " fill-opacity="1" fill-rule="nonzero"/></g></g><g clip-path="url(#d9601d3866)"><g clip-path="url(#2751368d54)"><path fill="#737373" d="M 209.671875 116.390625 L 227.660156 116.390625 L 227.660156 122.386719 L 209.671875 122.386719 Z M 230.660156 116.390625 L 248.648438 116.390625 L 248.648438 122.386719 L 230.660156 122.386719 Z M 251.644531 116.390625 L 269.632812 116.390625 L 269.632812 122.386719 L 251.644531 122.386719 Z M 272.632812 116.390625 L 290.621094 116.390625 L 290.621094 122.386719 L 272.632812 122.386719 Z M 293.621094 116.390625 L 311.609375 116.390625 L 311.609375 122.386719 L 293.621094 122.386719 Z M 314.605469 116.390625 L 332.59375 116.390625 L 332.59375 122.386719 L 314.605469 122.386719 Z M 335.59375 116.390625 L 353.582031 116.390625 L 353.582031 122.386719 L 335.59375 122.386719 Z M 356.578125 116.390625 L 374.566406 116.390625 L 374.566406 122.386719 L 356.578125 122.386719 Z M 377.566406 116.390625 L 395.554688 116.390625 L 395.554688 122.386719 L 377.566406 122.386719 Z M 398.554688 116.390625 L 416.542969 116.390625 L 416.542969 122.386719 L 398.554688 122.386719 Z M 419.539062 116.390625 L 437.527344 116.390625 L 437.527344 122.386719 L 419.539062 122.386719 Z M 440.527344 116.390625 L 458.515625 116.390625 L 458.515625 122.386719 L 440.527344 122.386719 Z M 461.511719 116.390625 L 479.503906 116.390625 L 479.503906 122.386719 L 461.511719 122.386719 Z M 482.5 116.390625 L 500.488281 116.390625 L 500.488281 122.386719 L 482.5 122.386719 Z M 503.488281 116.390625 L 521.476562 116.390625 L 521.476562 122.386719 L 503.488281 122.386719 Z M 524.472656 116.390625 L 542.460938 116.390625 L 542.460938 122.386719 L 524.472656 122.386719 Z M 545.460938 116.390625 L 563.449219 116.390625 L 563.449219 122.386719 L 545.460938 122.386719 Z M 566.449219 116.390625 L 584.4375 116.390625 L 584.4375 122.386719 L 566.449219 122.386719 Z M 587.433594 116.390625 L 605.421875 116.390625 L 605.421875 122.386719 L 587.433594 122.386719 Z M 608.421875 116.390625 L 626.410156 116.390625 L 626.410156 122.386719 L 608.421875 122.386719 Z M 629.40625 116.390625 L 647.394531 116.390625 L 647.394531 122.386719 L 629.40625 122.386719 Z M 650.394531 116.390625 L 668.382812 116.390625 L 668.382812 122.386719 L 650.394531 122.386719 Z M 671.382812 116.390625 L 689.371094 116.390625 L 689.371094 122.386719 L 671.382812 122.386719 Z M 692.367188 116.390625 L 710.355469 116.390625 L 710.355469 122.386719 L 692.367188 122.386719 Z M 713.355469 116.390625 L 731.34375 116.390625 L 731.34375 122.386719 L 713.355469 122.386719 Z M 734.339844 116.390625 L 752.332031 116.390625 L 752.332031 122.386719 L 734.339844 122.386719 Z M 755.328125 116.390625 L 773.316406 116.390625 L 773.316406 122.386719 L 755.328125 122.386719 Z M 776.316406 116.390625 L 794.304688 116.390625 L 794.304688 122.386719 L 776.316406 122.386719 Z M 797.300781 116.390625 L 815.289062 116.390625 L 815.289062 122.386719 L 797.300781 122.386719 Z M 818.289062 116.390625 L 836.277344 116.390625 L 836.277344 122.386719 L 818.289062 122.386719 Z M 839.277344 116.390625 L 857.265625 116.390625 L 857.265625 122.386719 L 839.277344 122.386719 Z M 860.261719 116.390625 L 878.25 116.390625 L 878.25 122.386719 L 860.261719 122.386719 Z M 881.25 116.390625 L 899.238281 116.390625 L 899.238281 122.386719 L 881.25 122.386719 Z M 902.234375 116.390625 L 920.222656 116.390625 L 920.222656 122.386719 L 902.234375 122.386719 Z M 923.222656 116.390625 L 941.210938 116.390625 L 941.210938 122.386719 L 923.222656 122.386719 Z M 944.210938 116.390625 L 962.199219 116.390625 L 962.199219 122.386719 L 944.210938 122.386719 Z M 965.195312 116.390625 L 983.183594 116.390625 L 983.183594 122.386719 L 965.195312 122.386719 Z M 986.183594 116.390625 L 1001.105469 116.390625 C 1002.179688 116.390625 1003.25 116.414062 1004.320312 116.460938 L 1004.058594 122.453125 C 1003.078125 122.410156 1002.09375 122.386719 1001.105469 122.386719 L 986.183594 122.386719 Z M 1007.433594 116.664062 C 1013.714844 117.203125 1019.808594 118.539062 1025.71875 120.664062 L 1023.6875 126.308594 C 1018.269531 124.355469 1012.679688 123.132812 1006.917969 122.636719 Z M 1028.632812 121.785156 C 1034.449219 124.164062 1039.871094 127.257812 1044.902344 131.058594 L 1041.285156 135.84375 C 1036.671875 132.355469 1031.695312 129.519531 1026.363281 127.335938 Z M 1047.359375 133 C 1052.214844 137.007812 1056.480469 141.566406 1060.15625 146.671875 L 1055.289062 150.175781 C 1051.914062 145.488281 1048 141.304688 1043.542969 137.625 Z M 1061.929688 149.253906 C 1065.386719 154.519531 1068.109375 160.136719 1070.09375 166.09375 L 1064.40625 167.992188 C 1062.585938 162.523438 1060.089844 157.375 1056.914062 152.542969 Z M 1071.019531 169.082031 C 1072.738281 175.105469 1073.664062 181.273438 1073.792969 187.585938 L 1067.796875 187.710938 C 1067.679688 181.914062 1066.832031 176.253906 1065.253906 170.730469 Z M 1073.808594 190.660156 L 1073.808594 208.648438 L 1067.8125 208.648438 L 1067.8125 190.660156 Z M 1073.808594 211.648438 L 1073.808594 229.636719 L 1067.8125 229.636719 L 1067.8125 211.648438 Z M 1073.808594 232.632812 L 1073.808594 250.621094 L 1067.8125 250.621094 L 1067.8125 232.632812 Z M 1073.808594 253.621094 L 1073.808594 271.609375 L 1067.8125 271.609375 L 1067.8125 253.621094 Z M 1073.808594 274.605469 L 1073.808594 292.59375 L 1067.8125 292.59375 L 1067.8125 274.605469 Z M 1073.808594 295.59375 L 1073.808594 313.582031 L 1067.8125 313.582031 L 1067.8125 295.59375 Z M 1073.808594 316.582031 L 1073.808594 334.570312 L 1067.8125 334.570312 L 1067.8125 316.582031 Z M 1073.808594 337.566406 L 1073.808594 355.554688 L 1067.8125 355.554688 L 1067.8125 337.566406 Z M 1073.808594 358.554688 L 1073.808594 376.542969 L 1067.8125 376.542969 L 1067.8125 358.554688 Z M 1073.808594 379.539062 L 1073.808594 397.53125 L 1067.8125 397.53125 L 1067.8125 379.539062 Z M 1073.808594 400.527344 L 1073.808594 418.515625 L 1067.8125 418.515625 L 1067.8125 400.527344 Z M 1073.808594 421.515625 L 1073.808594 439.503906 L 1067.8125 439.503906 L 1067.8125 421.515625 Z M 1073.808594 442.5 L 1073.808594 460.488281 L 1067.8125 460.488281 L 1067.8125 442.5 Z M 1073.808594 463.488281 L 1073.808594 481.476562 L 1067.8125 481.476562 L 1067.8125 463.488281 Z M 1073.808594 484.476562 L 1073.808594 502.464844 L 1067.8125 502.464844 L 1067.8125 484.476562 Z M 1073.808594 505.460938 L 1073.808594 523.449219 L 1067.8125 523.449219 L 1067.8125 505.460938 Z M 1073.808594 526.449219 L 1073.808594 544.4375 L 1067.8125 544.4375 L 1067.8125 526.449219 Z M 1073.808594 547.433594 L 1073.808594 565.421875 L 1067.8125 565.421875 L 1067.8125 547.433594 Z M 1073.808594 568.421875 L 1073.808594 586.410156 L 1067.8125 586.410156 L 1067.8125 568.421875 Z M 1073.808594 589.410156 L 1073.808594 607.398438 L 1067.8125 607.398438 L 1067.8125 589.410156 Z M 1073.808594 610.394531 L 1073.808594 628.382812 L 1067.8125 628.382812 L 1067.8125 610.394531 Z M 1073.808594 631.382812 L 1073.808594 649.371094 L 1067.8125 649.371094 L 1067.8125 631.382812 Z M 1073.808594 652.367188 L 1073.808594 670.359375 L 1067.8125 670.359375 L 1067.8125 652.367188 Z M 1073.808594 673.355469 L 1073.808594 691.34375 L 1067.8125 691.34375 L 1067.8125 673.355469 Z M 1073.808594 694.34375 L 1073.808594 712.332031 L 1067.8125 712.332031 L 1067.8125 694.34375 Z M 1073.808594 715.328125 L 1073.808594 733.316406 L 1067.8125 733.316406 L 1067.8125 715.328125 Z M 1073.808594 736.316406 L 1073.808594 754.304688 L 1067.8125 754.304688 L 1067.8125 736.316406 Z M 1073.808594 757.304688 L 1073.808594 775.292969 L 1067.8125 775.292969 L 1067.8125 757.304688 Z M 1073.808594 778.289062 L 1073.808594 796.277344 L 1067.8125 796.277344 L 1067.8125 778.289062 Z M 1073.808594 799.277344 L 1073.808594 817.265625 L 1067.8125 817.265625 L 1067.8125 799.277344 Z M 1073.808594 820.261719 L 1073.808594 838.25 L 1067.8125 838.25 L 1067.8125 820.261719 Z M 1073.808594 841.25 L 1073.808594 859.238281 L 1067.8125 859.238281 L 1067.8125 841.25 Z M 1073.808594 862.238281 L 1073.808594 880.226562 L 1067.8125 880.226562 L 1067.8125 862.238281 Z M 1073.808594 883.222656 L 1073.808594 901.210938 L 1067.8125 901.210938 L 1067.8125 883.222656 Z M 1073.808594 904.210938 L 1073.808594 922.199219 L 1067.8125 922.199219 L 1067.8125 904.210938 Z M 1073.808594 925.195312 L 1073.808594 943.1875 L 1067.8125 943.1875 L 1067.8125 925.195312 Z M 1073.808594 946.183594 L 1073.808594 964.171875 L 1067.8125 964.171875 L 1067.8125 946.183594 Z M 1073.808594 967.171875 L 1073.808594 985.160156 L 1067.8125 985.160156 L 1067.8125 967.171875 Z M 1073.808594 988.15625 L 1073.808594 1006.144531 L 1067.8125 1006.144531 L 1067.8125 988.15625 Z M 1073.808594 1009.144531 L 1073.808594 1027.132812 L 1067.8125 1027.132812 L 1067.8125 1009.144531 Z M 1073.808594 1030.128906 L 1073.808594 1048.121094 L 1067.8125 1048.121094 L 1067.8125 1030.128906 Z M 1073.808594 1051.117188 L 1073.808594 1069.105469 L 1067.8125 1069.105469 L 1067.8125 1051.117188 Z M 1073.808594 1072.105469 L 1073.808594 1090.09375 L 1067.8125 1090.09375 L 1067.8125 1072.105469 Z M 1073.808594 1093.089844 L 1073.808594 1111.078125 L 1067.8125 1111.078125 L 1067.8125 1093.089844 Z M 1073.808594 1114.078125 L 1073.808594 1132.066406 L 1067.8125 1132.066406 L 1067.8125 1114.078125 Z M 1073.808594 1135.066406 L 1073.808594 1153.054688 L 1067.8125 1153.054688 L 1067.8125 1135.066406 Z M 1073.808594 1156.050781 L 1073.808594 1174.039062 L 1067.8125 1174.039062 L 1067.8125 1156.050781 Z M 1073.808594 1177.039062 L 1073.808594 1195.027344 L 1067.8125 1195.027344 L 1067.8125 1177.039062 Z M 1073.808594 1198.023438 L 1073.808594 1216.015625 L 1067.8125 1216.015625 L 1067.8125 1198.023438 Z M 1073.808594 1219.011719 L 1073.808594 1237 L 1067.8125 1237 L 1067.8125 1219.011719 Z M 1073.808594 1240 L 1073.808594 1257.988281 L 1067.8125 1257.988281 L 1067.8125 1240 Z M 1073.808594 1260.984375 L 1073.808594 1278.972656 L 1067.8125 1278.972656 L 1067.8125 1260.984375 Z M 1073.808594 1281.972656 L 1073.808594 1299.960938 L 1067.8125 1299.960938 L 1067.8125 1281.972656 Z M 1073.808594 1302.957031 L 1073.808594 1320.949219 L 1067.8125 1320.949219 L 1067.8125 1302.957031 Z M 1073.808594 1323.945312 L 1073.808594 1341.933594 L 1067.8125 1341.933594 L 1067.8125 1323.945312 Z M 1073.808594 1344.933594 L 1073.808594 1362.921875 L 1067.8125 1362.921875 L 1067.8125 1344.933594 Z M 1073.808594 1365.917969 L 1073.808594 1383.90625 L 1067.8125 1383.90625 L 1067.8125 1365.917969 Z M 1073.808594 1386.90625 L 1073.808594 1404.894531 L 1067.8125 1404.894531 L 1067.8125 1386.90625 Z M 1073.808594 1407.894531 L 1073.808594 1425.882812 L 1067.8125 1425.882812 L 1067.8125 1407.894531 Z M 1073.808594 1428.878906 L 1073.808594 1446.867188 L 1067.8125 1446.867188 L 1067.8125 1428.878906 Z M 1073.808594 1449.867188 L 1073.808594 1467.855469 L 1067.8125 1467.855469 L 1067.8125 1449.867188 Z M 1073.808594 1470.851562 L 1073.808594 1488.839844 L 1067.8125 1488.839844 L 1067.8125 1470.851562 Z M 1073.808594 1491.839844 L 1073.808594 1494.425781 C 1073.808594 1499.832031 1073.222656 1505.144531 1072.054688 1510.375 L 1066.203125 1509.0625 C 1067.273438 1504.265625 1067.8125 1499.386719 1067.8125 1494.425781 L 1067.8125 1491.839844 Z M 1071.300781 1513.414062 C 1069.664062 1519.480469 1067.273438 1525.242188 1064.125 1530.699219 L 1058.933594 1527.703125 C 1061.820312 1522.699219 1064.011719 1517.414062 1065.511719 1511.851562 Z M 1062.507812 1533.375 C 1059.132812 1538.679688 1055.136719 1543.476562 1050.515625 1547.757812 L 1046.4375 1543.359375 C 1050.679688 1539.429688 1054.347656 1535.027344 1057.445312 1530.15625 Z M 1048.175781 1549.835938 C 1043.375 1553.921875 1038.136719 1557.320312 1032.46875 1560.035156 L 1029.878906 1554.625 C 1035.082031 1552.136719 1039.882812 1549.015625 1044.292969 1545.269531 Z M 1029.613281 1561.324219 C 1023.835938 1563.792969 1017.832031 1565.476562 1011.601562 1566.375 L 1010.742188 1560.441406 C 1016.457031 1559.617188 1021.960938 1558.070312 1027.261719 1555.808594 Z M 1008.484375 1566.757812 C 1006.035156 1567.003906 1003.578125 1567.128906 1001.105469 1567.128906 L 990.203125 1567.128906 L 990.203125 1561.132812 L 1001.105469 1561.132812 C 1003.375 1561.132812 1005.632812 1561.019531 1007.882812 1560.792969 Z M 987.203125 1567.128906 L 969.214844 1567.128906 L 969.214844 1561.132812 L 987.203125 1561.132812 Z M 966.214844 1567.128906 L 948.226562 1567.128906 L 948.226562 1561.132812 L 966.214844 1561.132812 Z M 945.230469 1567.128906 L 927.242188 1567.128906 L 927.242188 1561.132812 L 945.230469 1561.132812 Z M 924.242188 1567.128906 L 906.253906 1567.128906 L 906.253906 1561.132812 L 924.242188 1561.132812 Z M 903.257812 1567.128906 L 885.265625 1567.128906 L 885.265625 1561.132812 L 903.257812 1561.132812 Z M 882.269531 1567.128906 L 864.28125 1567.128906 L 864.28125 1561.132812 L 882.269531 1561.132812 Z M 861.28125 1567.128906 L 843.292969 1567.128906 L 843.292969 1561.132812 L 861.28125 1561.132812 Z M 840.296875 1567.128906 L 822.308594 1567.128906 L 822.308594 1561.132812 L 840.296875 1561.132812 Z M 819.308594 1567.128906 L 801.320312 1567.128906 L 801.320312 1561.132812 L 819.308594 1561.132812 Z M 798.324219 1567.128906 L 780.332031 1567.128906 L 780.332031 1561.132812 L 798.324219 1561.132812 Z M 777.335938 1567.128906 L 759.347656 1567.128906 L 759.347656 1561.132812 L 777.335938 1561.132812 Z M 756.347656 1567.128906 L 738.359375 1567.128906 L 738.359375 1561.132812 L 756.347656 1561.132812 Z M 735.363281 1567.128906 L 717.375 1567.128906 L 717.375 1561.132812 L 735.363281 1561.132812 Z M 714.375 1567.128906 L 696.386719 1567.128906 L 696.386719 1561.132812 L 714.375 1561.132812 Z M 693.386719 1567.128906 L 675.398438 1567.128906 L 675.398438 1561.132812 L 693.386719 1561.132812 Z M 672.402344 1567.128906 L 654.414062 1567.128906 L 654.414062 1561.132812 L 672.402344 1561.132812 Z M 651.414062 1567.128906 L 633.425781 1567.128906 L 633.425781 1561.132812 L 651.414062 1561.132812 Z M 630.429688 1567.128906 L 612.4375 1567.128906 L 612.4375 1561.132812 L 630.429688 1561.132812 Z M 609.441406 1567.128906 L 591.453125 1567.128906 L 591.453125 1561.132812 L 609.441406 1561.132812 Z M 588.453125 1567.128906 L 570.464844 1567.128906 L 570.464844 1561.132812 L 588.453125 1561.132812 Z M 567.46875 1567.128906 L 549.480469 1567.128906 L 549.480469 1561.132812 L 567.46875 1561.132812 Z M 546.480469 1567.128906 L 528.492188 1567.128906 L 528.492188 1561.132812 L 546.480469 1561.132812 Z M 525.496094 1567.128906 L 507.503906 1567.128906 L 507.503906 1561.132812 L 525.496094 1561.132812 Z M 504.507812 1567.128906 L 486.519531 1567.128906 L 486.519531 1561.132812 L 504.507812 1561.132812 Z M 483.519531 1567.128906 L 465.53125 1567.128906 L 465.53125 1561.132812 L 483.519531 1561.132812 Z M 462.535156 1567.128906 L 444.546875 1567.128906 L 444.546875 1561.132812 L 462.535156 1561.132812 Z M 441.546875 1567.128906 L 423.558594 1567.128906 L 423.558594 1561.132812 L 441.546875 1561.132812 Z M 420.558594 1567.128906 L 402.570312 1567.128906 L 402.570312 1561.132812 L 420.558594 1561.132812 Z M 399.574219 1567.128906 L 381.585938 1567.128906 L 381.585938 1561.132812 L 399.574219 1561.132812 Z M 378.585938 1567.128906 L 360.597656 1567.128906 L 360.597656 1561.132812 L 378.585938 1561.132812 Z M 357.601562 1567.128906 L 339.609375 1567.128906 L 339.609375 1561.132812 L 357.601562 1561.132812 Z M 336.613281 1567.128906 L 318.625 1567.128906 L 318.625 1561.132812 L 336.613281 1561.132812 Z M 315.625 1567.128906 L 297.636719 1567.128906 L 297.636719 1561.132812 L 315.625 1561.132812 Z M 294.640625 1567.128906 L 276.652344 1567.128906 L 276.652344 1561.132812 L 294.640625 1561.132812 Z M 273.652344 1567.128906 L 255.664062 1567.128906 L 255.664062 1561.132812 L 273.652344 1561.132812 Z M 252.667969 1567.128906 L 234.675781 1567.128906 L 234.675781 1561.132812 L 252.667969 1561.132812 Z M 231.679688 1567.128906 L 213.691406 1567.128906 L 213.691406 1561.132812 L 231.679688 1561.132812 Z M 210.691406 1567.128906 L 192.703125 1567.128906 L 192.703125 1561.132812 L 210.691406 1561.132812 Z M 189.707031 1567.128906 L 188.683594 1567.128906 C 182.726562 1567.128906 176.878906 1566.417969 171.144531 1564.996094 L 172.585938 1559.179688 C 177.847656 1560.480469 183.210938 1561.132812 188.683594 1561.132812 L 189.707031 1561.132812 Z M 168.128906 1564.179688 C 162.101562 1562.40625 156.390625 1559.886719 151.007812 1556.617188 L 154.117188 1551.488281 C 159.058594 1554.488281 164.292969 1556.800781 169.820312 1558.429688 Z M 148.371094 1554.9375 C 143.136719 1551.445312 138.433594 1547.339844 134.253906 1542.625 L 138.742188 1538.648438 C 142.578125 1542.976562 146.898438 1546.746094 151.699219 1549.949219 Z M 132.230469 1540.238281 C 128.253906 1535.347656 124.972656 1530.035156 122.386719 1524.308594 L 127.851562 1521.839844 C 130.226562 1527.097656 133.234375 1531.96875 136.882812 1536.457031 Z M 121.164062 1521.429688 C 118.828125 1515.597656 117.28125 1509.550781 116.519531 1503.296875 L 122.46875 1502.574219 C 123.167969 1508.308594 124.589844 1513.851562 126.730469 1519.203125 Z M 116.207031 1500.191406 C 116.058594 1498.277344 115.980469 1496.355469 115.980469 1494.425781 L 115.980469 1481.957031 L 121.976562 1481.957031 L 121.976562 1494.425781 C 121.976562 1496.199219 122.046875 1497.964844 122.183594 1499.722656 Z M 115.980469 1478.957031 L 115.980469 1460.96875 L 121.976562 1460.96875 L 121.976562 1478.957031 Z M 115.980469 1457.972656 L 115.980469 1439.984375 L 121.976562 1439.984375 L 121.976562 1457.972656 Z M 115.980469 1436.984375 L 115.980469 1418.996094 L 121.976562 1418.996094 L 121.976562 1436.984375 Z M 115.980469 1416 L 115.980469 1398.011719 L 121.976562 1398.011719 L 121.976562 1416 Z M 115.980469 1395.011719 L 115.980469 1377.023438 L 121.976562 1377.023438 L 121.976562 1395.011719 Z M 115.980469 1374.023438 L 115.980469 1356.035156 L 121.976562 1356.035156 L 121.976562 1374.023438 Z M 115.980469 1353.039062 L 115.980469 1335.050781 L 121.976562 1335.050781 L 121.976562 1353.039062 Z M 115.980469 1332.050781 L 115.980469 1314.0625 L 121.976562 1314.0625 L 121.976562 1332.050781 Z M 115.980469 1311.066406 L 115.980469 1293.074219 L 121.976562 1293.074219 L 121.976562 1311.066406 Z M 115.980469 1290.078125 L 115.980469 1272.089844 L 121.976562 1272.089844 L 121.976562 1290.078125 Z M 115.980469 1269.089844 L 115.980469 1251.101562 L 121.976562 1251.101562 L 121.976562 1269.089844 Z M 115.980469 1248.105469 L 115.980469 1230.117188 L 121.976562 1230.117188 L 121.976562 1248.105469 Z M 115.980469 1227.117188 L 115.980469 1209.128906 L 121.976562 1209.128906 L 121.976562 1227.117188 Z M 115.980469 1206.128906 L 115.980469 1188.140625 L 121.976562 1188.140625 L 121.976562 1206.128906 Z M 115.980469 1185.144531 L 115.980469 1167.15625 L 121.976562 1167.15625 L 121.976562 1185.144531 Z M 115.980469 1164.15625 L 115.980469 1146.167969 L 121.976562 1146.167969 L 121.976562 1164.15625 Z M 115.980469 1143.171875 L 115.980469 1125.183594 L 121.976562 1125.183594 L 121.976562 1143.171875 Z M 115.980469 1122.183594 L 115.980469 1104.195312 L 121.976562 1104.195312 L 121.976562 1122.183594 Z M 115.980469 1101.195312 L 115.980469 1083.207031 L 121.976562 1083.207031 L 121.976562 1101.195312 Z M 115.980469 1080.210938 L 115.980469 1062.222656 L 121.976562 1062.222656 L 121.976562 1080.210938 Z M 115.980469 1059.222656 L 115.980469 1041.234375 L 121.976562 1041.234375 L 121.976562 1059.222656 Z M 115.980469 1038.238281 L 115.980469 1020.246094 L 121.976562 1020.246094 L 121.976562 1038.238281 Z M 115.980469 1017.25 L 115.980469 999.261719 L 121.976562 999.261719 L 121.976562 1017.25 Z M 115.980469 996.261719 L 115.980469 978.273438 L 121.976562 978.273438 L 121.976562 996.261719 Z M 115.980469 975.277344 L 115.980469 957.289062 L 121.976562 957.289062 L 121.976562 975.277344 Z M 115.980469 954.289062 L 115.980469 936.300781 L 121.976562 936.300781 L 121.976562 954.289062 Z M 115.980469 933.300781 L 115.980469 915.3125 L 121.976562 915.3125 L 121.976562 933.300781 Z M 115.980469 912.316406 L 115.980469 894.328125 L 121.976562 894.328125 L 121.976562 912.316406 Z M 115.980469 891.328125 L 115.980469 873.339844 L 121.976562 873.339844 L 121.976562 891.328125 Z M 115.980469 870.34375 L 115.980469 852.355469 L 121.976562 852.355469 L 121.976562 870.34375 Z M 115.980469 849.355469 L 115.980469 831.367188 L 121.976562 831.367188 L 121.976562 849.355469 Z M 115.980469 828.367188 L 115.980469 810.378906 L 121.976562 810.378906 L 121.976562 828.367188 Z M 115.980469 807.382812 L 115.980469 789.394531 L 121.976562 789.394531 L 121.976562 807.382812 Z M 115.980469 786.394531 L 115.980469 768.40625 L 121.976562 768.40625 L 121.976562 786.394531 Z M 115.980469 765.410156 L 115.980469 747.417969 L 121.976562 747.417969 L 121.976562 765.410156 Z M 115.980469 744.421875 L 115.980469 726.433594 L 121.976562 726.433594 L 121.976562 744.421875 Z M 115.980469 723.433594 L 115.980469 705.445312 L 121.976562 705.445312 L 121.976562 723.433594 Z M 115.980469 702.449219 L 115.980469 684.460938 L 121.976562 684.460938 L 121.976562 702.449219 Z M 115.980469 681.460938 L 115.980469 663.472656 L 121.976562 663.472656 L 121.976562 681.460938 Z M 115.980469 660.476562 L 115.980469 642.484375 L 121.976562 642.484375 L 121.976562 660.476562 Z M 115.980469 639.488281 L 115.980469 621.5 L 121.976562 621.5 L 121.976562 639.488281 Z M 115.980469 618.5 L 115.980469 600.511719 L 121.976562 600.511719 L 121.976562 618.5 Z M 115.980469 597.515625 L 115.980469 579.527344 L 121.976562 579.527344 L 121.976562 597.515625 Z M 115.980469 576.527344 L 115.980469 558.539062 L 121.976562 558.539062 L 121.976562 576.527344 Z M 115.980469 555.539062 L 115.980469 537.550781 L 121.976562 537.550781 L 121.976562 555.539062 Z M 115.980469 534.554688 L 115.980469 516.566406 L 121.976562 516.566406 L 121.976562 534.554688 Z M 115.980469 513.566406 L 115.980469 495.578125 L 121.976562 495.578125 L 121.976562 513.566406 Z M 115.980469 492.582031 L 115.980469 474.59375 L 121.976562 474.59375 L 121.976562 492.582031 Z M 115.980469 471.59375 L 115.980469 453.605469 L 121.976562 453.605469 L 121.976562 471.59375 Z M 115.980469 450.605469 L 115.980469 432.617188 L 121.976562 432.617188 L 121.976562 450.605469 Z M 115.980469 429.621094 L 115.980469 411.632812 L 121.976562 411.632812 L 121.976562 429.621094 Z M 115.980469 408.632812 L 115.980469 390.644531 L 121.976562 390.644531 L 121.976562 408.632812 Z M 115.980469 387.648438 L 115.980469 369.65625 L 121.976562 369.65625 L 121.976562 387.648438 Z M 115.980469 366.660156 L 115.980469 348.671875 L 121.976562 348.671875 L 121.976562 366.660156 Z M 115.980469 345.671875 L 115.980469 327.683594 L 121.976562 327.683594 L 121.976562 345.671875 Z M 115.980469 324.6875 L 115.980469 306.699219 L 121.976562 306.699219 L 121.976562 324.6875 Z M 115.980469 303.699219 L 115.980469 285.710938 L 121.976562 285.710938 L 121.976562 303.699219 Z M 115.980469 282.710938 L 115.980469 264.722656 L 121.976562 264.722656 L 121.976562 282.710938 Z M 115.980469 261.726562 L 115.980469 243.738281 L 121.976562 243.738281 L 121.976562 261.726562 Z M 115.980469 240.738281 L 115.980469 222.75 L 121.976562 222.75 L 121.976562 240.738281 Z M 115.980469 219.753906 L 115.980469 201.765625 L 121.976562 201.765625 L 121.976562 219.753906 Z M 115.980469 198.765625 L 115.980469 189.09375 C 115.980469 186.1875 116.152344 183.300781 116.492188 180.429688 L 122.449219 181.136719 C 122.132812 183.769531 121.976562 186.421875 121.976562 189.09375 L 121.976562 198.765625 Z M 116.929688 177.328125 C 117.941406 171.117188 119.730469 165.140625 122.300781 159.402344 L 127.773438 161.855469 C 125.417969 167.117188 123.777344 172.59375 122.847656 178.289062 Z M 123.644531 156.574219 C 126.457031 150.957031 129.949219 145.78125 134.117188 141.050781 L 138.617188 145.015625 C 134.789062 149.355469 131.585938 154.105469 129.003906 159.261719 Z M 136.234375 138.75 C 140.597656 134.203125 145.460938 130.292969 150.828125 127.015625 L 153.953125 132.128906 C 149.03125 135.140625 144.566406 138.730469 140.558594 142.902344 Z M 153.535156 125.4375 C 159.042969 122.390625 164.84375 120.101562 170.941406 118.574219 L 172.398438 124.390625 C 166.808594 125.792969 161.488281 127.890625 156.4375 130.6875 Z M 174.003906 117.875 C 178.824219 116.886719 183.71875 116.390625 188.683594 116.390625 L 206.675781 116.390625 L 206.675781 122.386719 L 188.683594 122.386719 C 184.125 122.386719 179.632812 122.839844 175.207031 123.75 Z M 174.003906 117.875 " fill-opacity="1" fill-rule="nonzero"/></g></g></svg>